<?xml version="1.0" encoding="UTF-8" standalone="no"?>
<!-- Created with Inkscape (http://www.inkscape.org/) -->

<svg
   version="1.1"
   id="svg1"
   width="200"
   height="200"
   viewBox="0 0 200 200"
   xml:space="preserve"
   xmlns="http://www.w3.org/2000/svg"
   xmlns:svg="http://www.w3.org/2000/svg"><defs
     id="defs1" /><g
     id="g2"
     transform="translate(0.33468123,4.2715237)"><path
       style="fill:#000000;stroke-width:0.124967"
       d="M 98.157144,124.70513 C 97.74475,124.55086 96.451337,123.8703 95.28289,123.19279 85.181523,117.3356 66.101949,106.21966 60.791862,103.098 c -2.90056,-1.70517 -3.6932,-2.523 -4.269306,-4.40501 -0.219167,-0.71596 -0.229527,-1.78494 -0.229527,-23.68134 0,-21.90409 0.01027,-22.96513 0.229733,-23.681343 0.331794,-1.082927 0.7662,-1.818107 1.499774,-2.538207 0.757446,-0.74354 1.249793,-1.035246 28.512627,-16.8932 12.738554,-7.409627 11.496021,-6.761181 13.118154,-6.846027 2.009813,-0.105127 0.409893,-0.942607 20.310653,10.631593 7.72088,4.490427 18.22104,10.616067 20.61724,12.027801 1.45402,0.856647 2.34736,1.972987 2.88193,3.60138 0.23933,0.729013 0.24463,1.245447 0.24331,23.687403 -10e-4,25.20574 0.0558,23.35127 -0.76925,24.89922 -0.45609,0.85573 -1.20197,1.67653 -1.95611,2.15259 -0.8157,0.51493 -24.78852,14.49366 -36.09604,21.04786 -1.31709,0.76343 -2.73526,1.50278 -3.15148,1.643 -1.05612,0.35578 -2.565786,0.33948 -3.576426,-0.0386 z m -0.99974,-27.7634 V 76.69871 l -0.68732,-0.45388 C 95.739964,75.76269 93.29999,74.333941 78.099856,65.488041 62.982229,56.690147 62.465023,56.391494 62.346836,56.391494 c -0.161127,0 -0.209693,7.309813 -0.166353,25.036756 0.0276,11.28949 0.07613,15.52287 0.17934,15.64724 0.22764,0.27428 2.754333,1.71072 2.846713,1.61836 0.04627,-0.0463 0.112267,-8.24297 0.14664,-18.21487 0.04147,-12.028399 0.10492,-18.144866 0.188567,-18.172746 0.13828,-0.04607 0.65672,0.250253 12.495633,7.14234 11.070921,6.444996 15.047374,8.787266 15.527208,9.146076 l 0.406146,0.30371 0.0178,12.52163 c 0.0098,6.8869 0.05193,15.15831 0.09373,18.38091 l 0.07594,5.85928 1.31216,0.79482 c 0.721687,0.43716 1.396513,0.78019 1.499607,0.7623 0.16572,-0.0287 0.187453,-2.37954 0.187453,-20.27557 z m 7.192046,19.61184 c 0.64943,-0.3834 1.27919,-0.78577 1.39947,-0.89414 0.20637,-0.18595 0.21869,-1.21986 0.21869,-18.35023 0,-9.98425 0.0343,-18.24255 0.0762,-18.35177 0.10546,-0.27483 0.95043,-0.78386 11.67074,-7.030782 15.76912,-9.188967 16.58718,-9.661681 16.7201,-9.661681 0.0872,0 0.14203,5.821261 0.17072,18.114063 0.0291,12.44472 0.0834,18.15518 0.17365,18.24542 0.0919,0.0918 0.50757,-0.0911 1.38165,-0.60785 0.68765,-0.40656 1.33147,-0.83703 1.43071,-0.9566 0.15522,-0.18699 0.18582,-2.93648 0.2188,-19.66191 0.0211,-10.694476 0.002,-19.800103 -0.0422,-20.234729 -0.0653,-0.640414 -0.1169,-0.776261 -0.27242,-0.716587 -0.32638,0.125246 -27.44228,15.918607 -32.2287,18.771256 l -2.38778,1.42309 -0.0925,16.04061 c -0.0969,16.80647 -0.0221,24.56893 0.23679,24.56893 0.0799,0 0.67664,-0.31369 1.32606,-0.69709 z M 92.190864,106.19455 c 0.02467,-6.2067 -0.0033,-8.14128 -0.119554,-8.28138 C 91.840197,97.6347 91.089137,97.17771 85.410457,93.86041 72.480276,86.30699 67.605003,83.50944 67.371883,83.50944 c -0.10748,0 -0.1442,2.0824 -0.1442,8.17901 v 8.17901 l 0.406146,0.30392 c 0.752694,0.56324 2.451187,1.48356 2.58516,1.40076 0.09063,-0.056 0.135674,-1.95756 0.141667,-5.97947 0.0047,-3.24354 0.04813,-5.9969 0.09625,-6.11858 0.07567,-0.1914 0.46766,-0.004 2.906807,1.39083 3.140614,1.79577 10.942454,6.34465 13.733801,8.00753 l 1.812026,1.07946 0.06247,6.25591 c 0.05213,5.21796 0.09258,6.29214 0.243873,6.47434 0.2377,0.28626 2.656114,1.7035 2.817834,1.6513 0.08117,-0.0262 0.136233,-2.8786 0.157127,-8.13891 z m 16.994586,7.53329 c 0.64392,-0.35672 1.30804,-0.7758 1.47582,-0.9313 l 0.30504,-0.2827 v -6.17008 -6.17008 l 0.28118,-0.25505 c 0.33748,-0.30612 1.58388,-1.04568 10.54875,-6.25914 7.67033,-4.46064 7.60247,-4.42268 7.7119,-4.31325 0.0431,0.0431 0.0792,2.75419 0.0802,6.02469 6.7e-4,3.27051 0.0495,6.02154 0.10778,6.11341 0.12046,0.19004 0.87009,-0.14748 2.21813,-0.99872 0.60032,-0.37908 0.78254,-0.56756 0.84353,-0.87253 0.11972,-0.59859 0.0884,-15.89345 -0.0329,-16.08492 -0.0819,-0.12917 -1.91972,0.88553 -7.8398,4.32842 -13.80028,8.02572 -16.60194,9.6689 -16.82426,9.8675 -0.20408,0.1823 -0.21869,0.74491 -0.21869,8.42383 0,4.52568 0.0388,8.2285 0.0863,8.2285 0.0475,0 0.61313,-0.29186 1.25704,-0.64858 z M 92.221184,87.75793 V 80.27422 L 91.94001,79.96469 c -0.250846,-0.27614 -2.78484,-1.78063 -13.6527,-8.105896 -7.841167,-4.563686 -10.741927,-6.219707 -10.894714,-6.219707 -0.134747,0 -0.1646,1.365687 -0.163207,7.466807 0.0013,4.106746 0.0328,7.582506 0.07077,7.723916 0.04413,0.16427 0.596347,0.56494 1.529147,1.1095 15.20772,8.87801 23.162134,13.44432 23.286187,13.36764 0.05813,-0.0359 0.105694,-3.43298 0.105694,-7.54902 z m -4.248894,1.29089 c -2.110947,-1.18298 -14.141087,-8.18958 -16.120807,-9.38909 -1.644314,-0.99629 -1.499607,-0.60162 -1.499607,-4.09007 0,-1.662366 0.03573,-3.283159 0.0794,-3.601766 l 0.0794,-0.579286 0.701647,0.398566 c 6.33244,3.597096 17.116074,9.926176 17.478534,10.258416 0.279126,0.25586 0.281173,0.284 0.281173,3.86001 0,1.98125 -0.0422,3.60141 -0.09373,3.60035 -0.05153,-0.001 -0.459253,-0.20677 -0.906013,-0.45713 z m 26.68056,2.48755 c 12.86288,-7.44746 17.47716,-10.16956 17.90159,-10.56068 l 0.28118,-0.2591 v -7.480189 c 0,-6.240927 -0.0285,-7.491147 -0.17228,-7.5463 -0.0947,-0.03633 -1.31786,0.5922 -2.71804,1.3968 -5.5422,3.18478 -19.13573,11.109199 -20.97847,12.229509 l -1.06222,0.64578 -0.0324,7.55337 c -0.0179,4.15435 -0.006,7.62253 0.0263,7.70705 0.0654,0.17107 0.53118,-0.0831 6.7543,-3.68624 z m -3.60322,-2.1118 c -0.0458,-0.0458 -0.0833,-1.6454 -0.0833,-3.55461 0,-3.42416 0.004,-3.47553 0.28117,-3.78311 0.39731,-0.4406 17.80943,-10.574289 18.16917,-10.574289 0.14492,0 0.16811,0.603433 0.14045,3.655299 l -0.0331,3.65529 -1.37464,0.82629 c -3.18666,1.91548 -16.8636,9.85844 -16.9752,9.85844 -0.0227,0 -0.0787,-0.0375 -0.12452,-0.0833 z m -9.04284,-18.866829 c 4.23544,-2.408467 29.8367,-17.331774 31.93635,-18.616107 0.43731,-0.2675 0.80284,-0.54038 0.81229,-0.606407 0.009,-0.066 -0.54517,-0.45374 -1.23249,-0.8616 -2.41242,-1.43152 -26.23869,-15.319214 -31.21262,-18.193001 -1.31544,-0.76002 -2.29789,-1.25292 -2.410896,-1.20956 -0.3364,0.129087 -32.546328,18.813841 -34.139881,19.804301 -0.291987,0.181487 -0.530994,0.398667 -0.531114,0.48262 -4e-4,0.211833 2.480754,1.65938 2.844134,1.65938 0.340633,0 2.09724,-0.989527 12.026773,-6.774927 14.405754,-8.393453 18.642681,-10.8519 19.136468,-11.103814 l 0.503873,-0.257053 0.645863,0.335527 c 0.85825,0.44586 0.65397,0.328393 8.51881,4.898367 15.80007,9.18084 19.30747,11.249033 19.30747,11.384907 0,0.05433 -6.22806,3.731093 -13.84014,8.1705 -16.530656,9.640767 -17.276763,10.082067 -17.276763,10.21864 0,0.209394 2.505133,1.74512 2.8499,1.74708 0.08971,4e-4 1.017593,-0.484973 2.061973,-1.078853 z m -6.41708,-2.104047 c 0.541667,-0.274486 10.71119,-6.169753 12.72104,-7.374387 0.42958,-0.257473 0.78105,-0.51568 0.78105,-0.573793 0,-0.1326 -1.88263,-1.255147 -12.184336,-7.265127 -10.665827,-6.222413 -12.406701,-7.2212 -12.586501,-7.2212 -0.16012,0 -1.878266,0.973907 -8.220587,4.659733 -5.146393,2.990814 -5.89646,3.45666 -5.83972,3.626887 0.04893,0.146827 1.1928,0.87542 2.206614,1.405527 0.5747,0.3005 0.634846,0.308213 1.050326,0.134613 0.2424,-0.10128 2.336287,-1.290733 4.65308,-2.64322 2.3168,-1.352487 4.603234,-2.66324 5.080967,-2.912787 l 0.868607,-0.45372 0.58262,0.316207 c 0.32044,0.173913 1.988507,1.13536 3.706807,2.13654 1.718306,1.001187 5.363167,3.122707 8.099687,4.714487 5.678226,3.302907 5.959166,3.473933 5.959166,3.62788 0,0.09705 -2.25331,1.445867 -8.903946,5.32982 -0.8076,0.47164 -1.468367,0.922647 -1.468367,1.002234 0,0.07959 0.08245,0.213126 0.183207,0.296753 0.169313,0.140513 2.58422,1.503133 2.66394,1.503133 0.01947,0 0.310333,-0.139313 0.646346,-0.30958 z m 21.02336,-12.199767 c 6.98305,-4.044507 7.72476,-4.50038 7.72476,-4.74784 0,-0.119493 -1.81853,-1.211013 -8.24785,-4.950534 -2.71492,-1.579093 -6.87633,-3.999386 -9.24759,-5.37844 -5.37972,-3.12866 -7.001946,-4.03062 -7.249333,-4.03062 -0.37442,0 -12.995407,7.35776 -12.995407,7.57604 0,0.08225 0.351467,0.37102 0.781047,0.64172 1.30184,0.820347 22.136043,12.976414 23.317723,13.605121 l 0.54239,0.288573 0.7305,-0.368746 c 0.40177,-0.202814 2.49146,-1.388687 4.64376,-2.635274 z m -5.94414,-1.29614 c -0.77142,-0.40924 -8.80741,-5.089073 -14.728066,-8.577014 -1.56262,-0.92056 -2.841974,-1.71328 -2.843014,-1.761606 -0.002,-0.08221 1.961754,-1.270647 4.782534,-2.894647 0.672573,-0.387213 1.314533,-0.704033 1.42658,-0.704033 0.11204,0 0.770826,0.303073 1.463946,0.673486 1.17208,0.62638 15.4889,8.954654 16.60748,9.660787 l 0.5032,0.317654 -0.30221,0.22798 c -0.44775,0.337793 -5.39015,3.210273 -5.77603,3.35698 -0.27904,0.106093 -0.45963,0.0584 -1.13442,-0.299587 z"
       id="path1" /><path
       style="fill:#000000"
       d="m 104.86641,165.96556 c -0.62977,-0.27326 -1.7881,-1.18876 -2.57407,-2.03446 -1.21656,-1.30899 -1.45889,-2.19488 -1.62978,-5.95802 -0.22241,-4.89741 0.33235,-5.94064 3.15906,-5.94064 2.12129,0 3.04861,1.55708 3.04861,5.11897 v 3.03943 h 5.43893 5.43893 v -5.43893 -5.43893 h -7.64027 c -9.60021,0 -9.5353,0.0494 -9.5353,-7.25597 0,-4.27375 0.18016,-5.32503 1.04699,-6.1095 2.64932,-2.3976 5.25072,-0.36279 5.25072,4.10711 v 2.96065 h 5.7818 c 10.12548,0 11.39377,1.33609 11.39377,12.00287 v 6.90707 l -1.95839,2.13854 -1.95839,2.13854 -7.05879,0.13005 c -3.88233,0.0715 -7.57405,-0.0935 -8.20382,-0.36678 z m 49.53124,-0.74045 c -3.14541,-2.12366 -3.49486,-3.30173 -3.31611,-11.17945 l 0.15892,-7.00395 1.87018,-1.87009 c 1.86517,-1.86508 1.88783,-1.87061 8.44466,-2.06249 l 6.57447,-0.1924 v -3.01085 c 0,-3.28199 1.09106,-4.90588 3.29617,-4.90588 2.40464,0 3.00154,1.41366 3.00154,7.10865 0,7.25181 0.0635,7.20433 -9.63477,7.20433 h -7.5408 v 5.43893 5.43893 h 5.43893 5.43893 v -3.03943 c 0,-3.56189 0.92732,-5.11897 3.04861,-5.11897 2.67111,0 3.2491,1.00697 3.2491,5.66057 0,4.01964 -0.0984,4.33961 -1.95839,6.37074 l -1.95839,2.13854 -7.05879,0.18505 c -6.62557,0.17369 -7.18125,0.10236 -9.05426,-1.16223 z M 25.982355,164.90754 c -1.473704,-1.62842 -1.424637,-11.0092 0.06463,-12.35697 1.598356,-1.4465 11.561491,-1.36961 12.890995,0.0995 2.472381,2.73195 0.364881,5.25072 -4.39337,5.25072 -2.504458,0 -3.246904,0.19637 -3.246904,0.85878 0,0.7031 0.986005,0.85878 5.438931,0.85878 h 5.438932 v -5.15267 -5.15267 h -7.640275 c -6.674679,0 -7.760023,-0.13232 -8.587786,-1.04699 -1.257277,-1.38928 -1.198875,-3.12822 0.145935,-4.34525 0.955845,-0.86503 2.186363,-0.96626 9.778267,-0.80439 l 8.684821,0.18518 1.958374,2.13854 1.958373,2.13853 v 6.88705 6.88704 l -1.95839,2.13854 -1.958391,2.13854 -8.795895,0.18163 c -8.040728,0.16604 -8.880235,0.0884 -9.778251,-0.90386 z m 28.502378,0.46229 c -0.629771,-0.26049 -1.789122,-1.16663 -2.576336,-2.01365 -1.373163,-1.47748 -1.431298,-1.84001 -1.431298,-8.92565 v -7.38561 l 1.870115,-1.8717 1.870115,-1.87169 8.784588,-0.18227 c 9.560301,-0.19836 10.662205,0.11632 10.662205,3.04486 0,2.76328 -1.16173,3.14886 -9.487459,3.14886 H 56.48855 v 5.15267 5.15267 h 7.688113 c 8.325729,0 9.487459,0.38558 9.487459,3.14886 0,2.79971 -1.122024,3.15188 -9.916848,3.11256 -4.464627,-0.02 -8.63277,-0.24942 -9.262541,-0.50991 z m 25.19084,0.0232 c -0.629771,-0.27326 -1.789123,-1.18906 -2.576336,-2.03511 -1.368732,-1.47104 -1.439437,-1.90144 -1.617492,-9.8459 -0.162247,-7.23916 -0.0588,-8.44839 0.804382,-9.40219 1.251569,-1.38297 3.218195,-1.40402 4.44575,-0.0476 0.776735,0.85828 0.947512,2.35453 0.947512,8.30152 v 7.25454 h 5.438932 5.438931 v -7.0291 c 0,-7.71578 0.609514,-9.57395 3.140425,-9.57395 2.808748,0 3.157285,1.11146 3.157285,10.06838 v 8.26904 l -1.958393,2.13854 -1.958393,2.13854 -7.058783,0.13005 c -3.88233,0.0715 -7.574049,-0.0935 -8.20382,-0.36678 z m 50.381677,-0.0232 c -0.62977,-0.26049 -1.78912,-1.16663 -2.57633,-2.01365 -1.37317,-1.47748 -1.4313,-1.84001 -1.4313,-8.92565 v -7.38561 l 1.87013,-1.8717 1.87012,-1.87169 6.8184,-0.19011 c 10.36409,-0.28897 12.62837,1.31051 12.62837,8.92062 0,5.48942 -0.4911,5.86872 -7.59849,5.86872 -5.0392,0 -5.57986,-0.10756 -6.39576,-1.27242 -2.10617,-3.00698 -0.31907,-5.02529 4.44964,-5.02529 2.86522,0 3.2469,-0.1346 3.2469,-1.14503 0,-1.06469 -0.38168,-1.14504 -5.43893,-1.14504 h -5.43893 v 5.15267 5.15267 h 7.68811 c 8.32573,0 9.48746,0.38558 9.48746,3.14886 0,2.79971 -1.12202,3.15188 -9.91685,3.11256 -4.46462,-0.02 -8.63277,-0.24942 -9.26254,-0.50991 z"
       id="path2" /></g></svg>
