<?xml version="1.0" encoding="UTF-8" standalone="no"?>
<!-- Created with Inkscape (http://www.inkscape.org/) -->

<svg
   version="1.1"
   id="svg1"
   width="200"
   height="200"
   viewBox="0 0 200 200"
   xml:space="preserve"
   xmlns="http://www.w3.org/2000/svg"
   xmlns:svg="http://www.w3.org/2000/svg"><defs
     id="defs1" /><path
     style="fill:#000000;stroke-width:0.162457"
     d="M 97.604229,164.61667 C 97.068118,164.41612 95.38668,163.53139 93.8677,162.65063 80.735925,155.03628 55.932479,140.58556 49.029366,136.5274 c -3.770728,-2.21672 -4.80116,-3.2799 -5.550097,-5.72652 -0.284918,-0.93075 -0.298386,-2.32042 -0.298386,-30.78573 0,-28.475322 0.01335,-29.854674 0.298653,-30.785751 0.431333,-1.407805 0.99606,-2.363539 1.949706,-3.29967 0.98468,-0.966602 1.624731,-1.345819 37.066413,-21.961159 16.560119,-9.632515 14.944826,-8.789536 17.053599,-8.899835 2.612756,-0.136665 0.532866,-1.225389 26.403846,13.821071 10.03714,5.837555 23.68735,13.800887 26.80241,15.636141 1.89023,1.113641 3.05157,2.564883 3.74651,4.681794 0.31113,0.947717 0.31802,1.619081 0.3163,30.793629 -8.6e-4,32.76745 0.0725,30.35664 -1.00002,32.36897 -0.59292,1.11246 -1.56256,2.1795 -2.54294,2.79838 -1.06041,0.66941 -32.22508,18.84175 -46.92485,27.36221 -1.71221,0.99247 -3.55584,1.95362 -4.09693,2.1359 -1.37295,0.46252 -3.335519,0.44133 -4.649351,-0.0502 z m -1.299662,-36.09243 v -26.31591 l -0.893516,-0.59005 C 94.461895,100.9915 91.28993,99.134126 71.529758,87.634453 51.876843,76.197191 51.204475,75.808942 51.050832,75.808942 c -0.209465,0 -0.272601,9.502756 -0.216259,32.547788 0.03588,14.67634 0.09897,20.17972 0.233142,20.3414 0.295932,0.35656 3.580633,2.22394 3.700727,2.10387 0.06015,-0.0602 0.145947,-10.71585 0.190632,-23.67932 0.05392,-15.636925 0.136396,-23.588332 0.245137,-23.624576 0.179764,-0.05989 0.853736,0.325328 16.244323,9.285042 14.392195,8.378494 19.561584,11.423454 20.185367,11.889904 l 0.527991,0.39482 0.02314,16.27812 c 0.01274,8.95296 0.06751,19.7058 0.121853,23.89518 l 0.09872,7.61706 1.705808,1.03327 c 0.938193,0.56831 1.815467,1.01425 1.949489,0.99099 0.215436,-0.0373 0.243689,-3.0934 0.243689,-26.35825 z m 9.349663,25.4954 c 0.84426,-0.49842 1.66295,-1.0215 1.81931,-1.16238 0.26828,-0.24174 0.2843,-1.58582 0.2843,-23.8553 0,-12.97952 0.0446,-23.71531 0.0991,-23.8573 0.13709,-0.35727 1.23556,-1.01902 15.17195,-9.140018 20.49986,-11.945657 21.56334,-12.560186 21.73613,-12.560186 0.11336,0 0.18465,7.56764 0.22194,23.548284 0.0379,16.17814 0.10842,23.60173 0.22575,23.71904 0.11947,0.11934 0.65984,-0.11843 1.79614,-0.7902 0.89395,-0.52853 1.73091,-1.08815 1.85993,-1.24358 0.20178,-0.24309 0.24156,-3.81742 0.28444,-25.56048 0.0275,-13.902822 0.003,-25.740137 -0.0549,-26.305151 -0.0848,-0.832538 -0.15197,-1.009139 -0.35415,-0.931563 -0.42429,0.16282 -35.67496,20.694192 -41.8973,24.402634 l -3.10412,1.85002 -0.12025,20.85279 c -0.12597,21.84841 -0.0287,31.93961 0.30782,31.93961 0.10387,0 0.87964,-0.4078 1.72388,-0.90622 z M 89.848065,140.55292 c 0.03207,-8.06872 -0.0043,-10.58368 -0.155419,-10.76581 -0.300447,-0.362 -1.276825,-0.95609 -8.659109,-5.26857 -16.809233,-9.81945 -23.147088,-13.45626 -23.450144,-13.45626 -0.139724,0 -0.18746,2.70712 -0.18746,10.63271 v 10.63271 l 0.52799,0.39509 c 0.978502,0.73221 3.186543,1.92863 3.360708,1.82099 0.117819,-0.0728 0.176376,-2.54483 0.184167,-7.77331 0.0061,-4.2166 0.06256,-7.79597 0.125125,-7.95415 0.09837,-0.24882 0.607958,-0.005 3.778849,1.80808 4.082799,2.3345 14.22519,8.24803 17.853943,10.40978 l 2.355634,1.4033 0.08121,8.13268 c 0.06777,6.78335 0.120354,8.17979 0.317035,8.41665 0.30901,0.37213 3.452948,2.21455 3.663184,2.14669 0.105525,-0.0341 0.177103,-3.74218 0.204264,-10.58058 z m 22.092955,9.79327 c 0.8371,-0.46374 1.70046,-1.00854 1.91857,-1.21069 l 0.39655,-0.36751 v -8.0211 -8.02111 l 0.36554,-0.33157 c 0.43872,-0.39795 2.05904,-1.35938 13.71338,-8.13687 9.97142,-5.79883 9.8832,-5.74948 10.02546,-5.60722 0.0561,0.0561 0.10296,3.58044 0.10426,7.83209 8.7e-4,4.25166 0.0643,7.828 0.14012,7.94743 0.1566,0.24705 1.13111,-0.19172 2.88356,-1.29834 0.78042,-0.4928 1.01731,-0.73782 1.0966,-1.13429 0.15563,-0.77816 0.11492,-20.66147 -0.0428,-20.91039 -0.10647,-0.16791 -2.49563,1.1512 -10.19174,5.62695 -17.94036,10.43343 -21.58252,12.56956 -21.87153,12.82774 -0.26531,0.23699 -0.28431,0.96839 -0.28431,10.95098 0,5.88339 0.0504,10.69705 0.11219,10.69705 0.0617,0 0.79708,-0.37941 1.63416,-0.84315 z M 89.887481,116.58531 v -9.72882 L 89.521956,106.4541 C 89.195855,106.09512 85.901664,104.13928 71.773448,95.916432 61.579931,89.98364 57.808943,87.830812 57.61032,87.830812 c -0.175171,0 -0.21398,1.775394 -0.212169,9.706853 0.0016,5.338775 0.04264,9.857265 0.092,10.041095 0.05736,0.21355 0.775251,0.73442 1.987891,1.44235 19.770036,11.54141 30.110776,17.47761 30.272046,17.37793 0.07557,-0.0467 0.137401,-4.46288 0.137401,-9.81373 z m -5.523561,1.67816 c -2.744231,-1.53787 -18.38341,-10.64645 -20.957047,-12.20582 -2.137608,-1.29517 -1.949489,-0.7821 -1.949489,-5.31709 0,-2.161075 0.04645,-4.268106 0.10322,-4.682298 l 0.10322,-0.753072 0.912141,0.518136 c 8.232172,4.676224 22.250894,12.904034 22.722092,13.335944 0.362864,0.33262 0.365525,0.3692 0.365525,5.01802 0,2.57562 -0.05486,4.68183 -0.121845,4.68045 -0.06699,-0.002 -0.597029,-0.2688 -1.177817,-0.59427 z m 34.68472,3.23381 c 16.72175,-9.68169 22.72031,-13.22042 23.27207,-13.72888 l 0.36554,-0.33683 v -9.724246 c 0,-8.113208 -0.037,-9.738494 -0.22397,-9.810193 -0.12311,-0.04723 -1.71321,0.76986 -3.53345,1.81584 -7.20486,4.140214 -24.87645,14.441969 -27.27201,15.898369 l -1.38089,0.83951 -0.0421,9.81938 c -0.0232,5.40066 -0.008,9.90929 0.0342,10.01917 0.085,0.22239 0.69053,-0.10803 8.78059,-4.79212 z m -4.68418,-2.74534 c -0.0595,-0.0595 -0.10829,-2.13902 -0.10829,-4.62099 0,-4.4514 0.005,-4.51819 0.36552,-4.91804 0.5165,-0.57278 23.15226,-13.746581 23.61992,-13.746581 0.1884,0 0.21855,0.784463 0.18259,4.751891 l -0.0431,4.75188 -1.78704,1.07418 c -4.14265,2.49012 -21.92268,12.81597 -22.06776,12.81597 -0.0296,0 -0.10231,-0.0488 -0.16187,-0.10829 z M 102.60877,94.225063 c 5.50607,-3.131007 38.78771,-22.531306 41.51725,-24.200939 0.5685,-0.34775 1.0437,-0.702494 1.05598,-0.788329 0.0117,-0.0858 -0.70872,-0.589862 -1.60224,-1.12008 -3.13614,-1.860976 -34.1103,-19.914978 -40.5764,-23.650901 -1.71007,-0.988026 -2.98726,-1.628796 -3.134158,-1.572428 -0.437329,0.167812 -42.310232,24.457993 -44.381851,25.745591 -0.379583,0.235933 -0.690292,0.518267 -0.690448,0.627406 -5.2e-4,0.275383 3.22498,2.157194 3.697374,2.157194 0.442823,0 2.726412,-1.286385 15.634805,-8.807406 C 92.85656,51.703683 98.364564,48.507702 99.006487,48.180214 l 0.655044,-0.334169 0.839619,0.436185 c 1.11572,0.579618 0.85016,0.426911 11.07444,6.367877 20.5401,11.935092 25.09972,14.623743 25.09972,14.800379 0,0.07063 -8.09648,4.850421 -17.99218,10.62165 -21.489857,12.532997 -22.459796,13.106687 -22.459796,13.284232 0,0.272212 3.256674,2.268656 3.704879,2.271204 0.116607,5.2e-4 1.322867,-0.630465 2.680557,-1.402509 z m -8.342204,-2.735261 c 0.704166,-0.356832 13.924554,-8.020679 16.537344,-9.586703 0.55846,-0.334715 1.01537,-0.670384 1.01537,-0.745931 0,-0.17238 -2.44742,-1.631691 -15.839635,-9.444665 -13.865574,-8.089137 -16.128708,-9.38756 -16.362448,-9.38756 -0.208156,0 -2.441746,1.266079 -10.686763,6.057653 -6.690311,3.888058 -7.665398,4.493658 -7.591636,4.714953 0.06361,0.190875 1.55064,1.138046 2.868598,1.827185 0.74711,0.39065 0.8253,0.400677 1.365424,0.174997 0.31512,-0.131664 3.037173,-1.677953 6.049004,-3.436186 3.01184,-1.758233 5.984204,-3.462212 6.605257,-3.786623 l 1.129189,-0.589836 0.757406,0.411069 c 0.416572,0.226087 2.585057,1.475968 4.818847,2.777502 2.233798,1.301543 6.972116,4.059519 10.529592,6.128833 7.381695,4.293779 7.746915,4.516113 7.746915,4.716244 0,0.126165 -2.9293,1.879627 -11.575129,6.928766 -1.04988,0.613132 -1.908876,1.199441 -1.908876,1.302904 0,0.103467 0.107189,0.277064 0.238168,0.385779 0.220108,0.182667 3.359486,1.954073 3.463122,1.954073 0.02531,0 0.403434,-0.181107 0.840251,-0.402454 z M 121.59693,75.630105 c 9.07797,-5.257859 10.04219,-5.850494 10.04219,-6.172192 0,-0.155341 -2.36409,-1.574317 -10.7222,-6.435694 -3.5294,-2.052822 -8.93924,-5.199202 -12.02187,-6.991972 -6.99364,-4.067258 -9.102522,-5.239806 -9.424134,-5.239806 -0.486746,0 -16.894028,9.565088 -16.894028,9.848852 0,0.106925 0.456907,0.482326 1.015361,0.834236 1.692392,1.06645 28.776861,16.869338 30.313041,17.686657 l 0.7051,0.375145 0.94965,-0.47937 c 0.52231,-0.263658 3.2389,-1.805293 6.03689,-3.425856 z m -7.72738,-1.684982 C 112.8667,73.413111 102.41992,67.329328 94.723065,62.795005 92.691659,61.598277 91.0285,60.567741 91.027148,60.504917 c -0.0026,-0.106873 2.550279,-1.651841 6.217293,-3.763041 0.874345,-0.503377 1.708893,-0.915243 1.854554,-0.915243 0.145652,0 1.002075,0.393995 1.903135,0.875532 1.5237,0.814294 20.13556,11.64105 21.58972,12.559023 l 0.65416,0.41295 -0.39287,0.296374 c -0.58208,0.439131 -7.0072,4.173355 -7.50885,4.364074 -0.36275,0.137921 -0.59751,0.07592 -1.47474,-0.389463 z"
     id="path1" /></svg>
